HIERARCHY
ROOT root
{
	OFFSET 0.000000 0.000000 0.000000
	CHANNELS 6 Xposition Yposition Zposition Zrotation Yrotation Xrotation
	JOINT lhip
	{
		OFFSET 0.058581 -0.082280 -0.017664
		CHANNELS 3 Zrotation Yrotation Xrotation
		JOINT lknee
		{
			OFFSET 0.043451 -0.386469 0.008037
			CHANNELS 3 Zrotation Yrotation Xrotation
			JOINT lankle
			{
				OFFSET -0.014790 -0.426874 -0.037428
				CHANNELS 3 Zrotation Yrotation Xrotation
				JOINT ltoe
				{
					OFFSET 0.041054 -0.060286 0.122042
					CHANNELS 3 Zrotation Yrotation Xrotation
					End Site
					{
						OFFSET 0.000000 0.000000 0.000000
					}
				}
			}
		}
	}
	JOINT rhip
	{
		OFFSET -0.060310 -0.090513 -0.013543
		CHANNELS 3 Zrotation Yrotation Xrotation
		JOINT rknee
		{
			OFFSET -0.043257 -0.383688 -0.004843
			CHANNELS 3 Zrotation Yrotation Xrotation
			JOINT rankle
			{
				OFFSET 0.019056 -0.420046 -0.034562
				CHANNELS 3 Zrotation Yrotation Xrotation
				JOINT rtoe
				{
					OFFSET -0.034840 -0.062106 0.130323
					CHANNELS 3 Zrotation Yrotation Xrotation
					End Site
					{
						OFFSET 0.000000 0.000000 0.000000
					}
				}
			}
		}
	}
	JOINT lowerback
	{
		OFFSET 0.004439 0.124404 -0.038385
		CHANNELS 3 Zrotation Yrotation Xrotation
		JOINT upperback
		{
			OFFSET 0.004488 0.137956 0.026820
			CHANNELS 3 Zrotation Yrotation Xrotation
			JOINT chest
			{
				OFFSET -0.002265 0.056032 0.002855
				CHANNELS 3 Zrotation Yrotation Xrotation
				JOINT lowerneck
				{
					OFFSET -0.013390 0.211636 -0.033468
					CHANNELS 3 Zrotation Yrotation Xrotation
					JOINT upperneck
					{
						OFFSET 0.010113 0.088937 0.050410
						CHANNELS 3 Zrotation Yrotation Xrotation
						End Site
						{
							OFFSET 0.000000 0.000000 0.000000
						}
					}
				}
				JOINT lclavicle
				{
					OFFSET 0.071702 0.114000 -0.018898
					CHANNELS 3 Zrotation Yrotation Xrotation
					JOINT lshoulder
					{
						OFFSET 0.122921 0.045205 -0.019046
						CHANNELS 3 Zrotation Yrotation Xrotation
						JOINT lelbow
						{
							OFFSET 0.255332 -0.015649 -0.022946
							CHANNELS 3 Zrotation Yrotation Xrotation
							JOINT lwrist
							{
								OFFSET 0.265709 0.012698 -0.007375
								CHANNELS 3 Zrotation Yrotation Xrotation
								End Site
								{
									OFFSET 0.000000 0.000000 0.000000
								}
							}
						}
					}
				}
				JOINT rclavicle
				{
					OFFSET -0.082954 0.112472 -0.023707
					CHANNELS 3 Zrotation Yrotation Xrotation
					JOINT rshoulder
					{
						OFFSET -0.113228 0.046853 -0.008472
						CHANNELS 3 Zrotation Yrotation Xrotation
						JOINT relbow
						{
							OFFSET -0.260127 -0.014369 -0.031269
							CHANNELS 3 Zrotation Yrotation Xrotation
							JOINT rwrist
							{
								OFFSET -0.269108 0.006794 -0.006027
								CHANNELS 3 Zrotation Yrotation Xrotation
								End Site
								{
									OFFSET 0.000000 0.000000 0.000000
								}
							}
						}
					}
				}
			}
		}
	}
}
MOTION
Frames: 14
Frame Time: 0.033333
0.347284 0.113886 0.996453 80.916872 -1.156556 87.571724 9.176980 6.510671 1.762265 -2.667529 3.784649 6.750118 -0.594778 8.139973 -3.206153 0.000000 -0.000000 0.000000 -5.833361 -2.817575 1.685707 2.641154 0.016592 2.962278 5.936883 1.687742 -5.622956 0.000000 -0.000000 0.000000 -0.584374 2.150404 1.009223 7.206597 -5.701826 31.127756 1.376787 4.128796 -6.677480 9.672486 -20.191837 29.471946 15.364814 -9.323679 12.410911 -16.154248 1.686699 6.283049 -35.512222 10.166022 23.316617 -88.301769 -69.264355 115.846567 -5.809303 -31.547403 -2.910182 10.233267 10.615424 1.407869 9.669815 26.451830 -12.170362 -146.906821 64.010659 -146.980346 0.198667 20.851294 -9.515712 
0.347279 0.116558 0.995804 80.961438 -0.772430 87.627130 9.346825 6.585156 1.938385 -2.588411 3.566328 6.233322 -0.413925 8.232405 -3.484972 0.000000 -0.000000 0.000000 -5.634045 -2.895215 1.698205 2.705702 -0.028851 2.795189 6.034151 1.676849 -5.516795 0.000000 -0.000000 0.000000 -0.638123 2.239045 1.061215 6.682426 -5.396124 31.358822 1.175711 4.139252 -6.733568 9.616628 -20.248275 29.938529 15.445386 -8.878557 12.350204 -16.127907 1.097276 5.930569 -35.162855 10.341031 23.294996 -88.098876 -69.331035 115.730104 -6.450702 -31.990059 -2.391198 8.811289 11.359850 1.147909 8.232341 26.869018 -12.859066 -149.628854 63.844248 -149.282969 1.303295 21.394634 -9.911423 
0.347155 0.119274 0.995420 81.051711 -0.436796 87.740218 9.532672 6.566189 1.910972 -2.590082 3.354793 5.861068 -0.371647 8.221832 -3.494979 0.000000 -0.000000 0.000000 -5.403051 -2.952441 1.561455 2.643446 -0.008273 2.690059 6.218838 1.463404 -5.348508 0.000000 -0.000000 0.000000 -0.702899 2.415346 1.685119 6.163426 -4.821280 30.364725 1.024361 4.114647 -6.394034 9.771410 -20.293465 30.390966 15.415282 -8.661504 12.596047 -15.922911 0.516208 5.672584 -34.910849 10.437777 23.724624 -87.800884 -69.679904 115.735783 -6.827296 -32.415795 -1.941975 7.332710 11.964523 0.765058 8.044423 26.905176 -12.241588 -151.010491 62.999620 -149.745770 2.132004 21.372241 -11.831567 
0.346570 0.122443 0.995692 81.066518 -0.132599 87.652706 9.726456 6.509144 1.920131 -2.705110 3.237644 5.819327 -0.356569 8.286235 -3.593709 0.000000 -0.000000 0.000000 -5.220354 -3.166862 1.447372 2.515841 0.009355 2.825748 6.528677 1.508010 -5.118145 0.000000 -0.000000 0.000000 -1.149995 2.535564 1.359321 5.802310 -4.564704 31.100180 0.985870 4.333074 -5.901273 9.676940 -20.087325 29.982728 15.396495 -8.288101 13.003353 -15.747602 0.001745 5.300044 -34.883379 10.038387 23.425007 -88.040473 -69.666290 115.545686 -7.257109 -32.513050 -1.782737 6.828992 12.405164 0.627652 5.390201 27.587740 -14.382087 -153.272341 63.380846 -152.780660 4.212377 21.525357 -12.644281 
0.346442 0.125108 0.995889 80.945031 -0.040034 87.757691 9.620326 6.439146 1.731782 -2.743692 3.360376 5.805925 -0.249207 8.409913 -3.586230 0.000000 -0.000000 0.000000 -5.190815 -3.204218 1.108450 2.339328 0.033642 2.964547 6.637515 1.504265 -4.994355 0.000000 -0.000000 0.000000 -1.685874 2.919934 1.358895 5.353693 -4.009049 31.304899 0.982581 4.347924 -5.859975 9.921660 -19.714698 30.231100 15.328335 -7.702065 12.804339 -15.650255 -0.283541 4.804820 -34.497918 10.046169 23.626585 -88.541700 -69.844457 116.044447 -7.740508 -32.901382 -1.476856 6.009388 12.812022 0.623106 4.484523 28.025000 -14.779232 -153.966352 63.043380 -152.885342 5.598218 21.898085 -13.946863 
0.346330 0.128740 0.995527 80.979706 0.110437 87.784241 9.526099 6.390119 1.542000 -2.714010 3.366323 5.919599 -0.151953 8.457872 -3.731526 0.000000 -0.000000 0.000000 -5.232579 -3.321766 0.963162 2.256774 -0.020728 2.997848 6.808062 1.511840 -4.899422 0.000000 -0.000000 0.000000 -2.005397 3.224424 1.325510 4.895929 -3.607117 31.200140 0.867385 4.495032 -5.398752 9.638370 -19.294643 30.324521 15.728996 -7.507712 12.563618 -15.403959 -0.790206 4.424633 -34.270890 10.039185 23.641703 -89.210466 -69.945963 116.134564 -8.539691 -32.970261 -1.361946 5.258709 13.528707 0.607030 3.332111 27.993027 -15.386041 -154.980963 62.851133 -155.062027 6.542286 22.221553 -14.011144 
0.346476 0.132492 0.994973 81.018959 0.300845 87.882918 9.531036 6.360510 1.368082 -2.771655 3.360233 5.898961 -0.047066 8.420891 -3.824096 0.000000 -0.000000 0.000000 -5.234362 -3.426417 0.822767 2.167264 -0.092646 2.933539 7.010024 1.506176 -4.734423 0.000000 -0.000000 0.000000 -2.211617 3.570413 1.515885 4.423198 -3.172415 31.025159 0.589664 4.636561 -5.548245 9.550347 -18.394212 30.592680 16.035958 -7.310650 12.705311 -15.129444 -1.080841 4.142669 -33.974251 10.242166 23.891313 -90.177866 -70.215795 116.713942 -9.299401 -33.095155 -1.029602 4.767920 14.115577 0.672424 2.898326 27.997713 -14.980942 -154.887678 62.483258 -155.265185 7.153503 22.474727 -14.170345 
0.346673 0.136320 0.994379 81.216282 0.467539 88.059922 9.516662 6.276711 1.025622 -2.886574 3.300863 6.110661 0.065183 8.340528 -3.992105 0.000000 -0.000000 0.000000 -5.301840 -3.550417 0.693371 2.112804 -0.287647 2.874725 7.312213 1.506458 -4.493161 0.000000 -0.000000 0.000000 -2.748199 4.034942 1.125220 4.189467 -2.930781 31.446130 0.464398 4.647943 -5.682758 9.631229 -17.218802 30.839792 16.536448 -7.307213 12.728432 -14.493651 -1.090170 4.069210 -34.161159 9.949532 23.602842 -91.163483 -70.087029 117.461276 -9.942570 -33.138828 -1.146566 4.759429 14.368986 1.015755 1.836811 28.474083 -15.489766 -155.168543 62.456606 -155.717286 7.327479 22.351411 -14.276358 
0.346979 0.140669 0.994397 81.458661 0.747097 88.066843 9.493778 6.120116 0.882426 -2.815197 3.227091 6.191122 0.079657 8.326753 -4.064920 0.000000 -0.000000 0.000000 -5.209270 -3.687388 0.653718 1.957941 -0.536808 2.892068 7.588459 1.526521 -4.279954 0.000000 -0.000000 0.000000 -3.423975 3.982538 0.905391 4.001423 -2.725489 31.802148 0.559330 5.118101 -5.492193 9.013294 -16.839619 31.092635 16.276377 -6.857659 12.536079 -14.497774 -1.151054 3.803761 -34.261832 9.947792 23.226024 -91.730318 -70.166861 117.979646 -10.802785 -33.521596 -1.385075 4.589047 14.937558 1.203159 0.531083 28.935987 -17.373523 -155.394645 63.138808 -156.124998 9.939033 23.522106 -13.089500 
0.347531 0.144427 0.994504 81.713903 0.800596 88.012030 9.277100 6.006261 0.861554 -2.816280 3.127529 6.208533 0.308297 8.279288 -4.078615 0.000000 -0.000000 0.000000 -5.333233 -3.853606 0.642699 1.813192 -0.654003 3.051992 7.667628 1.451117 -4.171878 0.000000 -0.000000 0.000000 -3.725000 4.635367 1.193556 3.577848 -2.173756 31.656008 0.399198 4.870138 -5.399348 9.064268 -16.821756 30.929603 15.223268 -6.770063 12.344822 -14.284600 -1.122796 3.643130 -33.696501 9.591964 23.366503 -92.965473 -70.430502 119.173691 -11.418655 -33.962493 -1.703466 4.466645 14.711853 0.781521 1.329515 29.844650 -17.413194 -155.079282 63.267294 -154.794417 11.323967 24.007681 -12.400288 
0.347784 0.148357 0.994689 82.052210 0.911105 87.938219 9.093903 5.895255 0.752129 -2.764539 2.951727 6.319526 0.524681 8.205955 -4.169301 0.000000 -0.000000 0.000000 -5.391403 -4.031166 0.652626 1.682188 -0.844019 3.166564 7.788952 1.333780 -4.096702 0.000000 -0.000000 0.000000 -4.270278 5.045533 1.384239 3.323180 -1.856559 31.753505 0.250979 4.927499 -5.615481 8.520452 -16.313316 31.532953 15.238394 -6.676409 12.169520 -14.260471 -1.310406 3.600907 -33.159450 9.652986 23.403331 -94.514517 -70.636013 120.411670 -11.965903 -34.181658 -1.786393 4.794259 15.124654 0.977860 1.004649 29.947697 -17.757398 -154.336776 63.255118 -153.677285 11.666979 24.428353 -11.385956 
0.347617 0.152438 0.994272 82.586707 1.183008 87.980910 9.143871 5.757255 0.351150 -2.800646 2.767091 6.624037 0.646622 8.107307 -4.358627 0.000000 -0.000000 0.000000 -5.286388 -4.250730 0.538340 1.568565 -1.023142 3.304594 7.886803 1.110931 -4.016293 0.000000 -0.000000 0.000000 -4.723208 5.401987 1.519301 3.086029 -1.599956 31.556253 0.250623 5.075770 -5.473202 8.413481 -15.838398 31.506906 14.911178 -7.169843 12.121152 -14.051927 -1.475299 3.433784 -32.931318 9.478989 23.500723 -95.838381 -70.820838 121.423085 -12.369341 -34.504938 -1.810730 4.838098 15.601241 1.169149 0.585228 29.665269 -17.983146 -153.665106 63.055579 -153.103718 10.631173 24.813186 -10.495806 
0.347676 0.156539 0.994138 83.083221 1.391778 88.073012 9.097480 5.599740 -0.040846 -2.811764 2.578912 6.905342 0.809885 7.994704 -4.536721 0.000000 -0.000000 0.000000 -5.231384 -4.365153 0.427788 1.402309 -1.274861 3.399808 7.976932 0.915709 -3.861062 0.000000 -0.000000 0.000000 -5.211288 5.766328 1.730480 2.919811 -1.425296 31.237695 0.121374 5.081803 -5.559463 7.590856 -15.511939 32.109465 14.676521 -7.147777 12.019879 -13.998499 -1.385999 3.337815 -32.534524 9.418985 23.595586 -97.201013 -70.890712 122.665451 -12.018457 -34.390911 -1.516457 4.987740 15.774914 1.053930 0.478247 30.041141 -17.551820 -153.715059 63.412193 -153.448903 8.796312 25.183141 -10.320402 
0.349051 0.160760 0.993981 83.295532 1.461748 88.071371 8.866075 5.609119 0.024480 -2.769191 2.443977 6.757641 0.929515 7.940856 -4.599783 0.000000 -0.000000 0.000000 -5.443430 -4.469671 0.524813 1.337829 -1.459512 3.379153 8.186409 0.969413 -3.725297 0.000000 -0.000000 0.000000 -5.823247 6.155169 1.381897 2.742559 -1.023267 31.856932 -0.148512 5.187235 -5.878948 6.702769 -15.268555 32.884845 14.759948 -7.144391 11.458287 -13.799168 -1.451036 3.323041 -32.250049 9.364274 23.456271 -98.999811 -70.923043 124.446473 -11.995292 -34.296456 -1.005102 5.119731 15.870523 1.000301 0.485643 30.164046 -17.290545 -153.996202 63.707072 -154.045119 7.887158 25.352985 -10.053160 
